<?xml version="1.0" encoding="utf-8"?>
<!-- Generator: Adobe Illustrator 22.1.0, SVG Export Plug-In . SVG Version: 6.00 Build 0)  -->
<svg version="1.1" id="Layer_1" xmlns="http://www.w3.org/2000/svg" xmlns:xlink="http://www.w3.org/1999/xlink" x="0px" y="0px"
	 width="1000px" height="614.6px" viewBox="0 0 1000 614.6" style="enable-background:new 0 0 1000 614.6;" xml:space="preserve">
<style type="text/css">
	.st0{clip-path:url(#SVGID_2_);}
</style>
<g>
	<defs>
		<rect id="SVGID_1_" x="-250" y="-250" width="1500" height="1100"/>
	</defs>
	<clipPath id="SVGID_2_">
		<use xlink:href="#SVGID_1_"  style="overflow:visible;"/>
	</clipPath>
	<path class="st0" d="M126.9,447.1h23l3.7,10.7h17.1L147.2,396h-17.6l-23.5,61.9h17.1L126.9,447.1z M138.4,414.3l7.2,20.6h-14.4
		L138.4,414.3z M233.2,439.9c-1.8-4-2.7-8.4-2.7-13.2c0-4.8,0.9-9.1,2.7-13.1c1.8-4,4.2-7.4,7.1-10.3c3-2.9,6.4-5.1,10.4-6.7
		c3.9-1.6,8.1-2.4,12.4-2.4c2.5,0,4.9,0.3,7.3,0.8c2.4,0.5,4.9,1.3,7.5,2.4v19.2c-3.7-4.5-8.3-6.8-13.8-6.8c-2.4,0-4.6,0.4-6.7,1.3
		s-3.8,2.1-5.3,3.6c-1.5,1.5-2.6,3.3-3.5,5.4c-0.8,2.1-1.3,4.3-1.3,6.7c0,2.5,0.4,4.7,1.3,6.8c0.8,2.1,2,3.9,3.5,5.4
		c1.5,1.5,3.3,2.7,5.3,3.6c2,0.9,4.2,1.3,6.6,1.3c5.1,0,9.8-2.2,13.9-6.6v19l-1.6,0.6c-2.5,0.9-4.8,1.5-6.9,1.9
		c-2.1,0.4-4.2,0.6-6.3,0.6c-4.3,0-8.4-0.8-12.3-2.4c-3.9-1.6-7.4-3.9-10.3-6.8C237.4,447.4,235,443.9,233.2,439.9 M362.1,447.1h23
		l3.7,10.7H406L382.4,396h-17.6l-23.5,61.9h17.1L362.1,447.1z M373.6,414.3l7.2,20.6h-14.4L373.6,414.3z M506.5,455.3
		c3.7-1.7,6.9-4,9.7-6.8c2.8-2.8,4.9-6.1,6.5-9.9c1.6-3.7,2.3-7.6,2.3-11.7c0-4.1-0.8-8-2.4-11.8c-1.6-3.7-3.8-7-6.5-9.8
		c-2.8-2.8-6-5.1-9.7-6.8c-3.7-1.7-7.6-2.5-11.9-2.5h-23.8v61.9h23.8C498.8,457.8,502.8,457,506.5,455.3 M486.9,444.2v-34.6h3.7
		c2.7,0,5.2,0.4,7.4,1.3c2.2,0.9,4,2.1,5.5,3.6c1.5,1.5,2.7,3.4,3.5,5.5c0.8,2.1,1.2,4.4,1.2,6.9c0,2.5-0.4,4.8-1.2,6.9
		c-0.8,2.1-1.9,3.9-3.4,5.5c-1.5,1.5-3.4,2.7-5.5,3.6c-2.2,0.9-4.7,1.3-7.5,1.3H486.9z M628.2,457.8h-35.2V396h35.2v13.6h-19.1v10.3
		h18.1v13.6h-18.1v10.7h19.1V457.8z M710.8,457.8h-16l10.5-61.9h15.9l12.4,33l12.3-33h15.9l10.5,61.9h-16l-5.3-35.6l-14.6,35.6H730
		l-13.9-35.6L710.8,457.8z M855.2,428.1L832.7,396h19.2l11.5,16.9l11.4-16.9h19.2l-22.6,32.2v29.7h-16.1V428.1z M912.2,116.6
		c5.4,0,9.8-4.4,9.8-9.8c0-5.4-4.4-9.8-9.8-9.8c-5.4,0-9.8,4.4-9.8,9.8C902.3,112.2,906.7,116.6,912.2,116.6 M912.2,98.6
		c4.5,0,8.1,3.7,8.1,8.1c0,4.5-3.7,8.1-8.1,8.1c-4.5,0-8.1-3.7-8.1-8.1C904,102.2,907.7,98.6,912.2,98.6 M910.7,107.6h1.2
		c1.4,0,1.6,0.4,1.6,1.4v0.1c0,0.9,0,1.6,0.2,1.9h1.8c-0.1-0.4-0.1-1.1-0.1-1.6V109c0-1.5-0.6-2-1.1-2.1c0.6-0.3,1.2-0.9,1.2-2
		c0-1.3-1-2.4-2.9-2.4h-3.8v8.6h1.8V107.6z M910.7,103.9h1.6c0.9,0,1.4,0.4,1.4,1.1c0,0.7-0.4,1.1-1.4,1.1h-1.6V103.9z M146.9,188
		h64.6v65.9h39.3V128h263.4v36.3c-6.8-7.4-16.3-11-28.5-11c-13.3,0-24.3,4.3-33.1,13c-2.7,2.6-5,5.8-6.9,9.3v-19.8
		c-0.2-0.1-3.6-0.2-10.3-0.2c-4.8,0-9,1-12.7,3.1c-3.7,2-8,6.3-12.7,12.8v-13.8h-27.4v95.5h29.5v-28.4c0-16.5,1.1-26.4,3.2-29.8
		c2.1-3.5,4.5-6.2,7.1-8.2c2.5-2,5.9-3.5,10.3-4.4c3.4-0.8,6.8-0.9,10.1-0.3c-2.1,6.2-3.2,13.5-3.2,21.8c0,16.2,4.5,28.8,13.4,37.9
		c8.9,9,19.6,13.5,32.2,13.5c6.2,0,12.3-1.4,18.4-4.1c6-2.7,10.5-5.7,13.2-8.8v10.8l29.4-0.1V128h272.2v126h31.9V128H862v126h31.9
		V110.1c0.4-7.9-3-12.3-10.2-13.2H211.3v61.8h-64.3V96.9h-40.9v156.9h40.9V188z M510.5,227.4c-4.7,5-10.3,7.6-16.9,7.6
		c-8.4,0-14.9-3.4-19.5-10.1c-3.2-4.7-4.8-12.2-4.8-22.7c0-9.7,2.3-16.9,7-21.8c4.6-4.9,10.3-7.4,17.2-7.4c7.1,0,12.9,2.5,17.4,7.5
		c4.5,4.8,6.7,12.9,6.7,24.1C517.5,214.8,515.2,222.3,510.5,227.4 M366.2,221.2c0.1-9.9,0.3-20,0.3-30c0-11.1-1.4-18.8-4.2-22.9
		c-2.8-4.2-7.7-7.6-14.6-10.4c-6.9-2.7-17.4-4.1-31.4-4.1v0c-15.6,0-27.2,2.2-35.1,6.7c-7.9,4.5-13.4,12.7-16.7,24.6l26.9,3.9
		c3.1-6.7,6.3-10.8,9.4-12.2c3.1-1.4,8.2-2,15.1-2c7,0.1,12,0.9,15,2.6c3,1.6,4.5,4.8,4.5,9.8v2.5c-5.9,0.8-15.3,1.5-28.3,2.5
		c-13,0.9-22.8,3.1-29.2,6.5c-6.5,3.4-10.9,7.6-13.2,12.4c-2.3,4.8-3.5,10.8-3.5,17.7c0,6.9,3.6,13,10.6,18.4
		c7.1,5.4,16.7,8.2,29.1,8.2c7,0,13.5-1.1,19.6-3.2c6.2-2.1,12-5.4,17.3-9.6c0.3,0.5,0.6,1.5,1.1,3.1c1.2,3.3,2.2,5.9,3.1,7.6h31.3
		c-2.8-4.7-4.7-9-5.6-13C366.7,236.1,366.2,229.8,366.2,221.2 M335.5,211.6c-0.5,6.2-1.3,10.6-2.4,13.4c-1.1,2.7-3.6,5-7.4,6.8
		c-3.8,1.8-8.2,2.7-13.3,3c-5,0.3-9.5-0.6-13.5-2.5c-4-2-6-4.8-6-8.3c-0.1-3.7,1.5-6.8,4.7-9.5c3.1-2.8,9.2-4.8,18.1-5.9
		c8.9-1.2,15.5-1.9,19.8-2V211.6z M771.2,231.5c-3.4,2.1-7.6,3.1-12.5,3.1c-7.2,0-13.2-2-18-6.1c-4.9-4.2-7.5-9.9-7.6-17.2h77
		c1.5-19.1-2.8-33.2-13-42.5c-10.2-9.3-24.1-13.9-41.7-13.9c-15.7-0.1-28.7,4.3-39,13.3c-10.3,8.8-15.5,21-15.4,36.6
		c-0.1,13,3.8,23.8,11.7,32.4c9.9,10.7,25.2,16.1,45.8,16.1c13,0,23.8-2.4,32.5-7.1c8.6-4.8,15.1-13.2,19.5-25l-28.4-2.8
		C778.2,224.9,774.5,229.4,771.2,231.5 M740.2,179.9c4.5-4,10.1-5.9,17-5.9c6.4,0,11.7,1.9,16.2,5.7c4.5,3.7,6.4,7.9,5.8,12.7h-45.3
		C733.6,188,735.7,183.8,740.2,179.9 M712.2,154.9L677.3,254h-27.8l-18.8-60.2L612.2,254h-28l-36.5-98.3H581l20.1,55.7l15.9-56.5
		l28.5,0.8l18.7,56l19.6-56.8H712.2z M0,533.3h1000V0H0V533.3z M968.2,501.5H31.8V352.3h936.4V501.5z M968.2,320.5H31.8V31.8h936.4
		V320.5z M110.5,582.2h-4.5v31.2h3.9v-13.1h2.2c5.9,0,10.9-2.5,10.9-9.1C123.1,585.5,120.1,582.2,110.5,582.2 M111.2,596.8H110
		v-11.2h1c3.9,0,8.5,0.6,8.5,5.5C119.5,596.1,115.2,596.8,111.2,596.8 M142.4,581.5c-8.9,0-16.4,7.3-16.4,16.3
		c0,9.3,7.3,16.3,16.4,16.3s16.4-7,16.4-16.3C158.8,588.8,151.3,581.5,142.4,581.5 M142.4,610.4c-6.8,0-12.5-5.5-12.5-12.6
		c0-6.9,5.1-12.6,12.5-12.6c7.3,0,12.5,5.8,12.5,12.6C154.9,604.9,149.1,610.4,142.4,610.4 M200.1,582.2h4.2l-13,32.5l-8.8-22.9
		l-8.8,22.9l-13-32.5h4.2l8.7,22.4l8.8-23l8.8,23L200.1,582.2z M208.4,582.2h16.8v3.6h-12.9v8.7h12.5v3.6h-12.5v11.8h12.9v3.6h-16.8
		V582.2z M248.7,591.1c0-3-1.5-5.9-4.1-7.5c-2.5-1.4-5.5-1.4-8.2-1.4h-4.7v31.2h3.9v-13.2h1.6l9.2,13.2h4.7l-9.9-13.6
		C245.7,599.3,248.7,595.6,248.7,591.1 M236.8,597h-1.2v-11.3h1c3.9,0,8.5,0.7,8.5,5.6C245,596.2,240.7,597,236.8,597 M255.8,582.2
		h16.8v3.6h-12.9v8.7h12.5v3.6h-12.5v11.8h12.9v3.6h-16.8V582.2z M285.1,582.2h-6.5v31.2h6.3c9.9,0,17.6-5.1,17.6-15.8
		C302.7,587.2,294.7,582.2,285.1,582.2 M283.9,609.8h-1.4v-24.1h1.4c8,0,14.8,2.9,14.8,12.1C298.8,606.9,291.9,609.8,283.9,609.8
		 M333.4,596.8L333.4,596.8c2.1-1.1,3.4-3.7,3.4-6c0-7-5.6-8.6-11.4-8.6h-3.8v31.2h7.3c5.5,0,10.9-2.5,10.9-8.7
		C339.7,601,337.1,597.4,333.4,596.8 M325.4,585.7h1.1c3.6,0,6.6,0.7,6.6,5.1c0,4.5-3,5.2-6.7,5.2h-1V585.7z M328.4,609.9h-3v-10.8
		h2.4c3.5,0,8,0.9,8,5.3C335.8,608.8,332,609.9,328.4,609.9 M362.2,582.2h4.5l-10.2,17.6v13.6h-3.9v-13.6l-10.2-17.6h4.5l7.7,13.3
		L362.2,582.2z M398.2,596.7c1.9-1.2,2.7-3.8,2.7-6c0-6.2-3.6-8.5-9.4-8.5h-7.6v31.2h9.6c5.7,0,10-2.7,10-8.9
		C403.5,601.1,401.8,597.4,398.2,596.7 M390,587.1h0.8c2.6,0,4.4,0.8,4.4,4c0,3.2-1.4,4.1-4.4,4.1H390V587.1z M391.3,608.5H390v-8.7
		h1c3.1,0,6.4,0.2,6.4,4.2C397.4,608.1,394.6,608.5,391.3,608.5 M427.2,591.6c0-6.7-4.3-9.4-10.4-9.4h-8.2v31.2h6.1v-12.6h0.1
		l7.6,12.6h7.4l-8.8-13.2C425,599.5,427.2,595.6,427.2,591.6 M415.4,596.5h-0.8v-9.4h0.8c3.2,0,5.7,0.7,5.7,4.6
		C421.1,595.6,418.7,596.5,415.4,596.5 M433.3,582.2h16.2v5.3h-10.1v6.9h9.7v5.3h-9.7v8.5h10.1v5.3h-16.2V582.2z M463.9,582.2h-8.7
		v31.2h8.7c8.9,0,15.1-6.8,15.1-15.6C478.9,588.9,472.9,582.2,463.9,582.2 M462.2,608.1h-1v-20.6h1c6.9,0,10.4,3.5,10.4,10.3
		C472.6,604,469.7,608.1,462.2,608.1 M493.1,581.3L481,613.4h6.4l2.6-6.6h10.9l2.4,6.6h6.5l-11.8-32.1H493.1z M491.7,601.8l3.4-11.4
		h0.1l3.9,11.4H491.7z M541.1,596.7c1.9-1.2,2.7-3.8,2.7-6c0-6.2-3.6-8.5-9.4-8.5h-7.6v31.2h9.6c5.7,0,10-2.7,10-8.9
		C546.4,601.1,544.8,597.4,541.1,596.7 M533,587.1h0.8c2.6,0,4.4,0.8,4.4,4c0,3.2-1.4,4.1-4.4,4.1H533V587.1z M534.2,608.5H533v-8.7
		h1c3.1,0,6.4,0.2,6.4,4.2C540.3,608.1,537.5,608.5,534.2,608.5 M568.4,582.2h6.1v18.7c0,7.6-3.2,13.4-11.6,13.4
		c-8.4,0-11.6-5.8-11.6-13.4v-18.7h6.1v17.5c0,3.9,0.3,9.3,5.5,9.3c5.2,0,5.5-5.4,5.5-9.3V582.2z M599,603.5
		c0,6.3-3.9,10.7-10.3,10.7c-4.3,0-7.5-2.5-9.6-6.1l3.9-3.9c0.8,2.4,3,4.6,5.6,4.6c2.5,0,4-2.1,4-4.5c0-3.2-3-4.1-5.4-5.1
		c-4-1.7-7-3.7-7-8.5c0-5.2,3.9-9.4,9.1-9.4c2.8,0,6.6,1.4,8.5,3.5l-2.9,4.2c-1.2-1.6-2.7-2.6-4.7-2.6c-1.9,0-3.8,1.5-3.8,3.5
		C586.6,595.3,599,593.1,599,603.5 M603.9,582.2h6.1v31.2h-6.1V582.2z M637,582.2h6.1V614h-4.4l-16.4-21.8h-0.1v21.2h-6.1v-32.1h4.4
		l16.4,21.8h0.1V582.2z M649.2,582.2h16.2v5.3h-10.1v6.9h9.7v5.3h-9.7v8.5h10.1v5.3h-16.2V582.2z M689.6,603.5
		c0,6.3-3.9,10.7-10.3,10.7c-4.3,0-7.5-2.5-9.6-6.1l3.9-3.9c0.8,2.4,3,4.6,5.6,4.6c2.5,0,4-2.1,4-4.5c0-3.2-3-4.1-5.4-5.1
		c-4-1.7-7-3.7-7-8.5c0-5.2,3.9-9.4,9.1-9.4c2.8,0,6.6,1.4,8.5,3.5l-2.9,4.2c-1.2-1.6-2.7-2.6-4.7-2.6c-1.9,0-3.8,1.5-3.8,3.5
		C677.2,595.3,689.6,593.1,689.6,603.5 M713.1,603.5c0,6.3-3.9,10.7-10.3,10.7c-4.3,0-7.5-2.5-9.6-6.1l3.9-3.9
		c0.8,2.4,3,4.6,5.6,4.6c2.5,0,4-2.1,4-4.5c0-3.2-3-4.1-5.4-5.1c-4-1.7-7-3.7-7-8.5c0-5.2,3.9-9.4,9.1-9.4c2.8,0,6.6,1.4,8.5,3.5
		l-2.9,4.2c-1.2-1.6-2.7-2.6-4.7-2.6c-1.9,0-3.8,1.5-3.8,3.5C700.7,595.3,713.1,593.1,713.1,603.5 M750.1,603.5
		c0,6.3-3.9,10.7-10.3,10.7c-4.3,0-7.5-2.5-9.6-6.1l3.9-3.9c0.8,2.4,3,4.6,5.6,4.6c2.5,0,4-2.1,4-4.5c0-3.2-3-4.1-5.4-5.1
		c-4-1.7-7-3.7-7-8.5c0-5.2,3.9-9.4,9.1-9.4c2.8,0,6.6,1.4,8.5,3.5l-2.9,4.2c-1.2-1.6-2.7-2.6-4.7-2.6c-1.9,0-3.8,1.5-3.8,3.5
		C737.8,595.3,750.1,593.1,750.1,603.5 M768.9,581.3c2.4,0,4.8,0.7,7,1.8v7.3c-1.7-2.1-4.3-3.3-6.9-3.3c-5.8,0-9.2,5.4-9.2,10.8
		c0,5.3,3.5,10.5,9.2,10.5c2.6,0,5.2-1.4,6.9-3.3v7.2c-2.3,1.1-4.6,1.9-7.1,1.9c-8.8,0-15.3-7.6-15.3-16.2
		C753.5,589.2,759.8,581.3,768.9,581.3 M798.9,582.2h6.1v31.2h-6.1v-14h-11.3v14h-6.1v-31.2h6.1v12.3h11.3V582.2z M825.1,581.3
		c-9.3,0-15.5,7.1-15.5,16.4c0,9.2,5.9,16.5,15.5,16.5c9.5,0,15.5-7.3,15.5-16.5C840.5,588.5,834.4,581.3,825.1,581.3 M825.1,608.2
		c-6.8,0-9.2-5.9-9.2-10.7c0-5.1,3.4-10.1,9.2-10.1c5.8,0,9.2,5.1,9.2,10.1C834.2,602.3,831.8,608.2,825.1,608.2 M859.1,581.3
		c-9.3,0-15.5,7.1-15.5,16.4c0,9.2,5.9,16.5,15.5,16.5c9.5,0,15.5-7.3,15.5-16.5C874.6,588.5,868.5,581.3,859.1,581.3 M859.1,608.2
		c-6.8,0-9.2-5.9-9.2-10.7c0-5.1,3.4-10.1,9.2-10.1c5.8,0,9.2,5.1,9.2,10.1C868.3,602.3,865.9,608.2,859.1,608.2 M885.3,608.1h8.6
		v5.3h-14.7v-31.2h6.1V608.1z"/>
</g>
</svg>
