<?xml version="1.0" standalone="no"?>
<!DOCTYPE svg PUBLIC "-//W3C//DTD SVG 20010904//EN"
 "http://www.w3.org/TR/2001/REC-SVG-20010904/DTD/svg10.dtd">
<svg version="1.0" xmlns="http://www.w3.org/2000/svg"
 width="860.000000pt" height="860.000000pt" viewBox="0 0 860.000000 860.000000"
 preserveAspectRatio="xMidYMid meet">
<metadata>
Created by potrace 1.11, written by Peter Selinger 2001-2013
</metadata>
<g transform="translate(0.000000,860.000000) scale(0.100000,-0.100000)"
fill="#000000" stroke="none">
<path d="M3120 8531 c30 -10 118 -37 195 -60 220 -67 606 -203 775 -274 14 -6
27 -11 30 -12 3 0 27 -11 54 -23 27 -12 52 -22 55 -22 4 0 35 -13 69 -30 34
-16 64 -30 66 -30 17 0 448 -213 554 -274 35 -20 66 -36 68 -36 9 0 271 -161
393 -242 128 -85 332 -233 389 -282 15 -13 59 -50 97 -82 460 -382 819 -874
989 -1352 29 -80 82 -276 90 -332 32 -212 38 -275 39 -424 2 -155 -7 -352 -19
-409 -2 -12 -6 -44 -10 -72 -9 -86 -61 -315 -99 -440 -75 -247 -185 -492 -333
-740 -32 -54 -168 -257 -198 -295 -66 -84 -195 -243 -224 -275 -93 -105 -385
-390 -481 -470 -13 -11 -55 -46 -94 -79 -38 -32 -79 -65 -90 -75 -70 -57 -313
-233 -440 -318 -238 -159 -448 -286 -720 -433 -85 -47 -552 -280 -559 -280 -2
0 -51 -22 -108 -48 -57 -27 -193 -86 -303 -132 -110 -45 -213 -89 -230 -96
-16 -7 -109 -42 -205 -78 -96 -37 -197 -75 -225 -86 -197 -77 -1096 -361
-1221 -386 -12 -2 -51 -13 -85 -23 -54 -17 -179 -49 -252 -66 -10 -2 -27 -7
-37 -10 -10 -3 -27 -7 -37 -9 -17 -4 -62 -14 -298 -71 -93 -22 -300 -67 -370
-79 -192 -36 -321 -34 4003 -35 l4162 -1 0 4250 0 4250 -2722 -1 c-2636 0
-2721 -1 -2668 -18z"/>
<path d="M1575 8424 c325 -187 601 -416 865 -720 68 -78 221 -288 277 -379
158 -258 292 -560 386 -875 24 -80 45 -155 52 -190 34 -157 38 -179 55 -294 5
-32 10 -60 12 -62 2 -2 31 -6 63 -9 33 -4 71 -8 85 -11 14 -2 48 -6 75 -9 56
-7 317 -43 355 -51 14 -2 48 -7 75 -10 28 -3 52 -7 55 -9 3 -2 33 -7 65 -10
33 -4 62 -9 65 -10 3 -2 50 -11 105 -20 216 -35 605 -115 918 -187 120 -27
220 -48 222 -46 6 6 -65 273 -85 323 -5 11 -22 58 -40 105 -41 113 -55 145
-121 280 -55 112 -177 323 -226 389 -203 277 -349 441 -553 621 -47 41 -87 78
-90 81 -3 3 -61 49 -130 101 -350 267 -732 478 -1205 666 -103 41 -386 141
-418 147 -10 2 -55 15 -100 29 -179 54 -388 107 -607 152 -69 14 -226 44 -230
44 -3 0 31 -21 75 -46z"/>
<path d="M680 8365 c0 -4 25 -84 54 -178 105 -330 184 -636 229 -887 3 -14 12
-63 21 -110 23 -127 31 -177 42 -260 8 -68 10 -84 18 -135 6 -45 13 -113 31
-300 8 -85 14 -185 20 -305 3 -63 8 -116 11 -119 7 -7 17 -8 170 -16 295 -14
406 -21 834 -50 129 -9 240 -18 370 -30 30 -3 80 -8 110 -10 118 -11 166 -16
201 -20 l36 -4 -14 72 c-8 40 -17 83 -19 97 -3 14 -10 43 -16 65 -5 22 -12 47
-13 55 -25 112 -123 392 -187 535 -288 634 -683 1061 -1273 1375 -133 70 -385
167 -532 205 -34 8 -69 18 -78 21 -8 3 -15 3 -15 -1z"/>
<path d="M4500 7563 c667 -619 1062 -1294 1185 -2028 9 -49 18 -100 20 -111 4
-17 25 -28 107 -54 221 -70 468 -178 674 -296 62 -35 114 -64 117 -64 3 0 4
10 2 22 -3 12 -7 53 -10 92 -3 39 -10 94 -15 121 -5 28 -12 66 -15 85 -3 19
-15 71 -26 115 -11 44 -22 87 -24 95 -2 8 -18 55 -35 105 -92 258 -223 495
-407 735 -189 247 -524 565 -798 756 -275 192 -466 307 -740 448 l-130 67 95
-88z"/>
<path d="M1109 5658 c-1 -112 -18 -555 -24 -623 -1 -22 -6 -92 -10 -155 -3
-63 -8 -126 -10 -140 -2 -14 -6 -59 -10 -100 -6 -76 -12 -146 -20 -210 -2 -19
-7 -60 -10 -90 -5 -48 -25 -209 -41 -335 -2 -22 -7 -51 -9 -65 -4 -22 -11 -68
-20 -135 -8 -61 -18 -124 -40 -250 -32 -184 -34 -196 -39 -222 -3 -11 -8 -42
-12 -68 l-7 -47 219 7 c121 4 242 8 269 10 28 2 104 6 170 9 66 4 143 9 170
11 28 3 84 7 125 10 41 3 104 8 140 10 36 3 85 7 110 9 25 3 74 7 110 11 36 3
79 7 95 9 17 2 68 7 113 11 l84 7 29 66 c52 116 157 404 185 507 1 6 16 57 33
113 16 57 32 116 35 130 3 15 16 77 30 137 13 61 27 127 30 147 3 21 12 75 20
120 13 73 24 161 41 328 18 178 22 677 5 693 -3 3 -39 8 -80 11 -41 4 -91 9
-110 11 -105 11 -151 16 -205 20 -33 3 -80 7 -105 10 -25 2 -74 7 -110 10 -60
5 -96 8 -225 20 -27 2 -90 7 -140 10 -49 3 -112 7 -140 10 -27 2 -95 7 -150
11 -55 3 -118 8 -140 9 -22 2 -107 6 -190 10 -82 4 -153 9 -157 12 -5 2 -8
-20 -9 -49z"/>
<path d="M3259 5511 c0 -3 -2 -116 -4 -251 -3 -224 -6 -291 -20 -420 -2 -25
-7 -70 -10 -100 -15 -146 -38 -293 -80 -515 -38 -200 -160 -615 -244 -828
l-11 -29 47 6 c27 4 59 8 73 11 14 2 48 7 75 10 28 3 64 8 80 10 17 3 47 7 68
10 49 7 364 54 397 59 117 20 330 57 350 61 14 3 39 8 55 10 17 3 131 26 255
51 124 25 236 48 250 50 13 3 63 14 110 25 47 12 96 23 110 25 14 3 93 21 175
41 83 21 154 36 158 35 30 -8 193 481 222 668 4 25 9 54 11 65 24 123 33 223
39 438 l6 187 -23 9 c-20 7 -381 93 -443 105 -11 2 -101 21 -200 41 -99 20
-191 39 -205 41 -14 3 -63 12 -110 21 -47 9 -94 17 -106 18 -11 2 -45 8 -75
14 -30 5 -67 12 -84 15 -16 2 -48 7 -70 11 -129 20 -295 46 -330 51 -22 3 -51
7 -65 9 -65 10 -190 26 -235 31 -27 3 -76 9 -107 13 -32 4 -58 5 -59 2z"/>
<path d="M5739 5002 c-4 -164 -9 -255 -13 -297 -3 -27 -8 -77 -11 -110 -4 -33
-13 -100 -21 -150 -8 -49 -17 -103 -20 -120 -3 -16 -7 -37 -9 -45 -2 -8 -6
-26 -9 -40 -8 -42 -54 -211 -74 -276 l-20 -62 27 8 c215 66 580 216 686 283
195 122 269 198 281 291 9 61 -10 107 -67 170 -79 87 -277 202 -467 272 -37
13 -76 29 -87 34 -11 5 -59 22 -107 39 l-88 30 -1 -27z"/>
<path d="M6227 3784 c-117 -60 -368 -160 -548 -219 -96 -31 -181 -58 -189 -60
-91 -19 -97 -23 -136 -98 -152 -295 -354 -604 -568 -867 -122 -150 -209 -246
-365 -400 -169 -167 -197 -192 -346 -314 -133 -109 -167 -140 -120 -111 17 10
44 25 60 33 37 18 272 153 340 196 28 17 58 36 67 41 226 131 655 441 893 644
181 155 391 358 510 495 33 38 67 76 75 85 123 132 444 612 407 611 -7 -1 -42
-17 -80 -36z"/>
<path d="M4803 3328 c-51 -13 -459 -97 -552 -113 -83 -14 -107 -19 -161 -30
-25 -5 -47 -8 -124 -20 -21 -4 -48 -9 -60 -11 -11 -2 -50 -9 -86 -14 -36 -6
-119 -19 -185 -30 -66 -10 -140 -22 -165 -25 -25 -3 -56 -8 -70 -10 -23 -4
-86 -13 -135 -20 -11 -1 -49 -5 -85 -9 -36 -4 -72 -9 -80 -11 -8 -2 -40 -7
-70 -10 -30 -3 -66 -8 -80 -10 -14 -3 -52 -7 -85 -10 -33 -3 -69 -8 -80 -10
-11 -2 -28 -4 -37 -4 -11 -1 -44 -56 -102 -173 -47 -95 -101 -200 -120 -233
-20 -33 -40 -71 -46 -84 -6 -13 -24 -44 -40 -68 -17 -24 -30 -46 -30 -49 0 -5
-171 -267 -179 -274 -3 -3 -20 -25 -36 -50 -56 -82 -225 -297 -335 -424 -167
-194 -495 -507 -665 -637 -16 -13 -32 -26 -35 -29 -27 -29 -316 -238 -405
-293 -33 -20 -52 -37 -44 -37 43 0 390 66 499 94 8 3 56 14 105 26 50 11 104
25 120 30 288 89 381 120 494 161 73 27 147 56 165 63 17 8 76 33 131 56 306
129 674 329 980 533 105 70 404 289 438 321 7 6 53 45 102 86 276 228 593 560
822 860 91 120 193 265 193 276 0 4 8 17 18 28 18 21 102 153 102 161 0 6 -40
3 -77 -7z"/>
<path d="M2188 2924 c-2 -1 -41 -5 -88 -9 -47 -4 -96 -9 -110 -10 -14 -1 -63
-6 -110 -10 -47 -4 -101 -8 -120 -10 -19 -2 -78 -6 -130 -10 -52 -3 -111 -8
-130 -10 -19 -2 -84 -7 -145 -11 -60 -3 -132 -8 -160 -10 -27 -1 -113 -6 -190
-10 -135 -6 -197 -10 -222 -13 -6 0 -17 -25 -23 -53 -123 -519 -503 -1574
-745 -2071 -14 -27 -11 -27 93 29 59 31 114 63 123 70 8 8 19 14 23 14 20 0
310 191 476 314 208 154 353 280 580 504 141 139 211 215 365 397 65 77 212
274 297 401 109 161 298 478 298 498 0 5 -77 6 -82 0z"/>
</g>
</svg>
