<svg xmlns="http://www.w3.org/2000/svg" id="Laag_1" width="947.2" height="217.8">
  <style>
    .st0{fill:#123d66}.st1{fill:#fcdac5}.st2{fill:#fff}
  </style>
  <path d="M209.9 204.6c0 1.9-1.2 3.1-3 3.1h-2.4v-6h2.6c1.8 0 2.8 1.1 2.8 2.9m-5.4 4.6h2.7c2.4 0 3.6 1.2 3.6 3.5 0 2.1-1.3 3.2-3.7 3.2h-2.6v-6.7zm8.6-4.7c0-2.6-2-4.2-5.1-4.2h-9v1.4h2.8V216H199v1.4h9.5c3.5 0 5.5-1.6 5.5-4.5 0-2.8-2-4.4-5.6-4.5 2.7-.1 4.7-1.7 4.7-3.9m12.7 3.8h-2.6v-6.6h2.6c1.9 0 2.9 1.1 2.9 3.2s-1.2 3.4-2.9 3.4m8.6 9v-1.4h-1c-.8 0-1.5-.4-2.1-1.4l-3.4-5c2.4-.4 3.9-2.2 3.9-4.7 0-3-1.9-4.6-5.5-4.6h-8.7v1.5h2.8v14.2h-2.8v1.4h8.3v-1.4h-2.8v-6.1h1.8l3.9 5.9c.9 1.4 1.2 1.5 2.8 1.5h2.8zm16.8 0v-3.4h-1.4v1.9h-6.2v-6.4h4.7v1.8h1.4v-5.1h-1.4v1.8h-4.7v-6.2h6v2h1.4v-4.2h-1.4v.8H238v1.3h2.8v14.3H238v1.4zm18.9-8.5c0 4-2.6 7-6 7h-2.9v-14.1h2.9c3.4 0 6 3.1 6 7.1m3.2 0c0-4.7-3.9-8.5-8.9-8.5h-8.7v1.4h2.8V216h-2.8v1.4h8.7c5-.1 8.9-3.8 8.9-8.6m12.2 1.7H280l2.8-6.5 2.7 6.5zm6.8 6.8v-1.4h-1.5l-6.8-16.2h-1l-7.1 16.2h-1.4v1.4h5.2v-1.4h-2.1l1.8-4h6.7l1.7 4h-1.6v1.4h6.1zm29-15.6v-1.5h-7.4v1.5h2.8v9.2c0 3-2 5.1-4.7 5.1s-4.5-2.1-4.5-5.1v-9.2h2.8v-1.5h-8.4v1.5h2.8v10c0 3.5 2.9 6 6.8 6 4.2 0 7.1-2.7 7.1-6.7v-9.3h2.7zm22.5 0v-1.4h-7.4v1.4h2.8v10.6l-10.4-12h-4.7v1.4h2.6l.7 1v13.2h-2.7v1.4h7.4v-1.4h-2.8v-10.8l10.6 12.5h1.1v-15.9zm11.8 15.6v-1.4h-2.8v-14.2h2.8v-1.4h-8.4v1.4h2.8v14.2h-2.8v1.4zm20.2-15.6v-1.4h-5.3v1.4h2.1l-4.7 11.4-4.7-11.4h2.3v-1.4h-7.2v1.4h1.8l6.7 16h.9l6.5-16zm16 15.6v-3.4h-1.4v1.9h-6.3v-6.4h4.8v1.8h1.3v-5.1h-1.3v1.8h-4.8v-6.2h6.1v2h1.3v-4.2h-1.4v.8h-11.5v1.3h2.7v14.3h-2.7v1.4zm12.6-9h-2.6v-6.6h2.6c1.9 0 2.9 1.1 2.9 3.2s-1.2 3.4-2.9 3.4m8.6 9v-1.4h-1c-.8 0-1.5-.4-2.1-1.4l-3.4-5c2.4-.4 3.9-2.2 3.9-4.7 0-3-1.9-4.6-5.5-4.6h-8.7v1.5h2.8v14.2h-2.8v1.4h8.3v-1.4h-2.8v-6.1h1.8l3.9 5.9c.9 1.4 1.2 1.5 2.8 1.5h2.8zm14.5-4.4c0-2.4-.9-3.6-4-5.3l-2.6-1.5c-1.3-.7-1.7-1.3-1.7-2.2 0-1.5 1.1-2.5 2.9-2.5 1 0 1.7.2 3.1 1v1.8h1.4v-4.4h-1.4v.9c-1.1-.6-2.1-.8-3.4-.8-2.9 0-5.3 2.1-5.3 4.7 0 2.2 1.1 3.5 4.3 5.1 3.1 1.5 4.1 2.5 4.1 3.9s-1.3 2.5-3.2 2.5c-1.3 0-2.3-.3-3.8-1.2V213h-1.4v4.6h1.4v-1c1.4.8 2.8 1.2 4.2 1.2 3.1 0 5.4-2.1 5.4-4.9m11.9 4.4v-1.4h-2.8v-14.2h2.8v-1.4H431v1.4h2.8v14.2H431v1.4zm19.6-13.5v-4.3h-1.3v.8h-13.6v-.8h-1.3v4.3h1.3v-2.1h5.4v14.2h-3.1v1.4h9v-1.4h-3.1v-14.2h5.4v2.1zm18.9-2.1v-1.4h-5.5v1.4h2.1l-3.9 6.3-4.3-6.3h1.7v-1.4h-6.7v1.4h1.9l5.3 7.7v6.5h-2.8v1.4h8.4v-1.4h-2.8v-6.3l4.8-7.9zm24.2 7.1c0 4.2-2.5 7.4-5.6 7.4-3.1 0-5.6-3.3-5.6-7.5 0-4.1 2.5-7.4 5.6-7.4 3.1.1 5.6 3.3 5.6 7.5m3.1-.1c0-4.7-4.1-8.9-8.7-8.9-4.7 0-8.8 4.1-8.8 8.9 0 4.9 4 9 8.8 9 4.7.1 8.7-4.1 8.7-9m16-5v-4.2h-1.3v.8h-11.6v1.3h2.8v14.3h-2.8v1.4h8.3v-1.4h-2.7v-6.5h4.7v1.8h1.4v-5.1h-1.4v1.8h-4.7v-6.2h6v2zm21.1 6.8h-5.5l2.8-6.5 2.7 6.5zm6.8 6.8v-1.4h-1.5l-6.8-16.2h-1l-7.1 16.2h-1.4v1.4h5.2v-1.4h-2.1l1.8-4h6.7l1.7 4H543v1.4h6.1zm17.4-12.1c0-3.1-2.1-5-5.3-5h-8.9v1.5h2.8v14.2h-2.8v1.4h8.3v-1.4h-2.8v-14.2h2.1c2.2 0 3.5 1.3 3.5 3.7 0 2.2-1.5 3.9-3.6 3.9-.3 0-.4 0-.7-.1v1.2c.7.1 1 .1 1.5.1 3.4.1 5.9-2.2 5.9-5.3m17.4 0c0-3.1-2.1-5-5.3-5h-8.9v1.5h2.8v14.2h-2.8v1.4h8.3v-1.4h-2.8v-14.2h2.1c2.2 0 3.5 1.3 3.5 3.7 0 2.2-1.5 3.9-3.6 3.9-.3 0-.4 0-.7-.1v1.2c.7.1 1 .1 1.5.1 3.4.1 5.9-2.2 5.9-5.3m16.7 12.1v-3.7h-1.3v2.2h-6.2v-14.1h2.8v-1.4h-8.4v1.4h2.8v14.2h-2.8v1.4zm11.9 0v-1.4h-2.8v-14.2h2.8v-1.4h-8.3v1.4h2.7v14.2h-2.7v1.4zm17.7 0v-3.4h-1.3v1.9h-6.3v-6.4h4.7v1.8h1.4v-5.1h-1.4v1.8h-4.7v-6.2h6.1v2h1.3v-4.2h-1.4v.8h-11.5v1.3h2.7v14.3h-2.7v1.4zm18.9-8.5c0 4-2.6 7-6 7h-2.9v-14.1h2.9c3.4 0 6 3.1 6 7.1m3.2 0c0-4.7-3.9-8.5-8.9-8.5h-8.7v1.4h2.8V216h-2.8v1.4h8.7c5.1-.1 8.9-3.8 8.9-8.6m23.1 4.1c0-2.4-.9-3.6-4.1-5.3l-2.6-1.5c-1.3-.7-1.7-1.3-1.7-2.2 0-1.5 1.1-2.5 2.9-2.5 1 0 1.7.2 3.1 1v1.8h1.4v-4.4H673v.9c-1.1-.6-2.1-.8-3.4-.8-2.9 0-5.3 2.1-5.3 4.7 0 2.2 1.1 3.5 4.3 5.1 3.1 1.5 4 2.5 4 3.9s-1.3 2.5-3.2 2.5c-1.3 0-2.3-.3-3.8-1.2V213h-1.4v4.6h1.4v-1c1.4.8 2.8 1.2 4.2 1.2 3.3 0 5.6-2.1 5.6-4.9m18.9 3.6v-3.4H693v1.9c-1.8.9-2.7 1.2-3.9 1.2-4 0-7-3.3-7-7.7 0-4.1 2.8-7.2 6.5-7.2 1.7 0 2.8.4 4.4 1.5v1.3h1.3v-4.4H693v1.1c-1.7-.8-2.7-1.1-4.3-1.1-5.7 0-9.8 3.7-9.8 9 0 5.2 4 8.9 9.6 8.9 2.3.2 3.7-.2 5.8-1.1m12.2.8v-1.4h-2.8v-14.2h2.8v-1.4h-8.3v1.4h2.7v14.2h-2.7v1.4zm17.7 0v-3.4h-1.3v1.9h-6.3v-6.4h4.7v1.8h1.4v-5.1h-1.4v1.8h-4.7v-6.2h6.1v2h1.3v-4.2h-1.4v.8h-11.5v1.3h2.7v14.3h-2.7v1.4zm23.7-15.6v-1.4h-7.4v1.4h2.8v10.6l-10.3-12h-4.8v1.4h2.6l.7 1v13.2h-2.7v1.4h7.4v-1.4h-2.8v-10.8l10.7 12.5h1.1v-15.9zm17.2 14.8v-3.4h-1.3v1.9c-1.8.9-2.7 1.2-3.9 1.2-4 0-7-3.3-7-7.7 0-4.1 2.8-7.2 6.5-7.2 1.7 0 2.8.4 4.4 1.5v1.3h1.3v-4.4h-1.3v1.1c-1.7-.8-2.7-1.1-4.3-1.1-5.7 0-9.8 3.7-9.8 9 0 5.2 4 8.9 9.6 8.9 2.3.2 3.7-.2 5.8-1.1m17.1.8v-3.4h-1.4v1.9h-6.3v-6.4h4.7v1.8h1.4v-5.1h-1.4v1.8h-4.7v-6.2h6.1v2h1.3v-4.2h-1.4v.8H769v1.3h2.7v14.3H769v1.4zm15.2-4.4c0-2.4-.9-3.6-4-5.3l-2.6-1.5c-1.3-.7-1.7-1.3-1.7-2.2 0-1.5 1.1-2.5 2.9-2.5 1 0 1.7.2 3.1 1v1.8h1.4v-4.4h-1.4v.9c-1.1-.6-2.1-.8-3.4-.8-2.9 0-5.3 2.1-5.3 4.7 0 2.2 1.1 3.5 4.3 5.1 3.1 1.5 4 2.5 4 3.9s-1.3 2.5-3.2 2.5c-1.3 0-2.3-.3-3.8-1.2V213h-1.4v4.6h1.4v-1c1.4.8 2.8 1.2 4.2 1.2 3.2 0 5.5-2.1 5.5-4.9" class="st0"/>
  <path d="M104.5 12.6s0-.1 0 0z" class="st1"/>
  <path d="M176.2 179V8.9H18C28.7 33.9 31.8 70 23.2 115c-3.8 20.2-11.6 39.5-17.1 51.6V179h170.1z" class="st2"/>
  <path d="M236.8 28.4c0 8.6-5.3 14.7-12.9 14.7h-11.8V14.3H225c6.8 0 11.8 6 11.8 14.1m-24.7 20h13c9 0 15.7 7 15.7 16.6 0 9.5-5.9 15.3-15.7 15.3h-13V48.4zm35.5-20.5c0-10.6-8.6-19-19.1-19h-35.3v4.3h8.7v68h-8.7v4.3h37.5c11.8 0 20.6-8.6 20.6-19.9 0-7.9-4.2-14.6-11.4-18-2.9-1.4-4.6-1.9-9.4-2.4 9.4-.9 17.1-8.6 17.1-17.3m42.1 53.3h-11.1V50.3c6.4-7.8 8.5-9.7 10.6-9.7 1.2 0 2.8 1 5.1 3.2l6.7-8.1-3.6-3.1c-.7-.7-1.9-1-3.2-1-4.2 0-7.2 2.6-15.5 13.2v-13h-2.1l-16.7 4.5v3.1H270v41.7h-8.8v4.3h28.6v-4.2zM340 51.1h-26.9c1-9 7-14.7 15.4-14.7 6.7 0 11.5 5 11.5 11.9v2.8zm9.5 4.7v-3.1c0-12.5-8.6-21.1-21.1-21.1-14.4 0-24.9 11.8-24.9 28.1 0 16 10.4 27.4 25.2 27.4 6.7 0 10.8-1.4 19.5-6.4l-2.2-4.3c-6.5 4.2-9.6 5.3-14.3 5.3-11 0-18.7-10.1-18.7-24.6v-1.3h36.5zM396 72.9c-1.5 1.2-2.7 2.1-3.4 2.7-4.1 3.1-5.8 3.8-9.4 3.8-9.5 0-15.2-7.8-15.2-20.8 0-13.3 7.5-22.3 18.8-22.3 6.8 0 9.2 2.4 9.2 9.6v27zm18.9 9.3V79h-10.1V0h-2.2L386 4.5v3.1h10v26.8c-4.4-2.3-6.5-2.9-10.4-2.9-15.2 0-27.5 12.9-27.5 28.9 0 14.8 9.5 26.6 21.6 26.6 5.9 0 10-2.1 16.4-8.5v8.1h2.2l16.6-4.4zm36.5-8.2c-5.1 4.5-8.1 6.1-11.8 6.1-4.9 0-8-3.1-8-8v-5.8l19.8-4.6V74zm17.7 9.3V80h-8.9V44.3c0-7.7-6.7-12.8-16.9-12.8-10.6 0-18.3 5-18.3 11.7 0 1.3.1 1.9.9 3.2l10.3-3v-5.6c3.4-1.6 4.9-2 7.2-2 4.6 0 8.1 3.4 8.1 8v13.1l-19.8 4.5c-5.6 1.3-9.4 6.1-9.4 12.1 0 7.8 5.9 13.3 13.9 13.3 6.1 0 10.6-2.4 15.4-8.5v1.2c0 4.3 2.1 6.8 5.7 6.8.9 0 2.6-.3 4.1-.8l7.7-2.2zM236.8 122c0 8.6-5.3 14.7-12.9 14.7h-11.8v-28.9H225c6.8 0 11.8 6 11.8 14.2m-24.7 19.9h13c9 0 15.7 7 15.7 16.6 0 9.5-5.9 15.3-15.7 15.3h-13v-31.9zm35.5-20.4c0-10.6-8.6-19-19.1-19h-35.3v4.3h8.7v68h-8.7v4.3h37.5c11.8 0 20.6-8.6 20.6-19.9 0-7.9-4.2-14.6-11.4-18-2.9-1.4-4.6-1.9-9.4-2.4 9.4-1 17.1-8.6 17.1-17.3m73.1 54.3v-3.2h-10.1v-47.2h-2.2l-15.3 4.1v3.6h8.8v27.8l-6.3 7c-4.8 5.2-7.2 7-11.5 7-5.7 0-8.5-3.5-8.5-10.6v-38.8h-2.2l-16.7 4.5v3.1h10.1v32.6c0 9.3 5.3 15 14 15 7.2 0 12.6-3.6 21-13.7v13.1h2.1l16.8-4.3zm44.9-11.1c0-7.4-3.6-11.2-15-15.8-14-5.7-14.8-6.3-14.8-11.2 0-5 3.9-8.2 10-8.2 6.3 0 11.5 3.7 11.5 8.2 0 1-.2 2.6-.7 3.8h5l2.8-16.7h-5l-.7 4.2c-3.2-2.7-7.2-3.9-12.3-3.9-10.7 0-18 6.1-18 15.2 0 7.3 3.9 11.6 15.1 15.9 12.2 4.8 15.4 7.3 15.4 11.9 0 4.6-4.8 8-11.1 8-7.2 0-13.7-4.4-13.7-9.4v-3.1h-5.3v16.5h4.6v-4.2c3.4 3.1 8.2 4.6 14.7 4.6 10.3 0 17.5-6.5 17.5-15.8m33.9 14.3v-4.3h-8.8v-49.4h-2.1l-16.7 4.5v3.2H382v41.7h-8.9v4.3zm-8-73.5c0-3.4-2.7-6-6.1-6-3.4 0-6 2.7-6 6 0 3.5 2.7 6.1 6 6.1 3.5 0 6.1-2.6 6.1-6.1m76.7 73.5v-4.3h-8.7v-35.1c0-8.9-5.3-14.5-13.9-14.5-7.4 0-12.4 3.1-21.1 13.2v-13h-2.1l-16.7 4.5v3.1h10.1v41.7H407v4.3h26.3v-4.3h-8.8v-30.2c10.1-11.6 13-13.8 18-13.8 5.1 0 8.2 3.8 8.2 10v34H442v4.3h26.2zm41.3-34.3h-26.9c1-9 7-14.7 15.4-14.7 6.7 0 11.5 5 11.5 11.9v2.8zm9.5 4.6v-3.1c0-12.5-8.6-21.1-21.1-21.1-14.4 0-24.9 11.8-24.9 28.1 0 16 10.4 27.4 25.2 27.4 6.7 0 10.8-1.4 19.5-6.4l-2.2-4.3c-6.5 4.2-9.6 5.3-14.3 5.3-11 0-18.7-10.1-18.7-24.6v-1.3H519zm46.5 15.4c0-7.4-3.6-11.2-15-15.8-14-5.7-14.8-6.3-14.8-11.2 0-5 3.9-8.2 10-8.2 6.3 0 11.5 3.7 11.5 8.2 0 1-.2 2.6-.7 3.8h5l2.8-16.7h-5l-.7 4.2c-3.2-2.7-7.2-3.9-12.3-3.9-10.7 0-18 6.1-18 15.2 0 7.3 3.9 11.6 15.1 15.9 12.2 4.8 15.4 7.3 15.4 11.9 0 4.6-4.8 8-11.1 8-7.2 0-13.7-4.4-13.7-9.4v-3.1h-5.3v16.5h4.6v-4.2c3.4 3.1 8.2 4.6 14.7 4.6 10.3 0 17.5-6.5 17.5-15.8m48 0c0-7.4-3.6-11.2-15-15.8-14-5.7-14.8-6.3-14.8-11.2 0-5 3.9-8.2 10-8.2 6.3 0 11.5 3.7 11.5 8.2 0 1-.2 2.6-.7 3.8h5l2.8-16.7h-5l-.7 4.2c-3.2-2.7-7.2-3.9-12.3-3.9-10.7 0-18 6.1-18 15.2 0 7.3 3.9 11.6 15.1 15.9 12.2 4.8 15.4 7.3 15.4 11.9 0 4.6-4.8 8-11.1 8-7.2 0-13.7-4.4-13.7-9.4v-3.1h-5.3v16.5h4.6v-4.2c3.4 3.1 8.2 4.6 14.7 4.6 10.3 0 17.5-6.5 17.5-15.8m71.1-5.5c0-9.5-4.2-14.6-18.7-23-14.5-8.3-17.9-11.7-17.9-17.6 0-7.2 5.1-11.9 13-11.9 4.6 0 7.5 1.2 13.5 5.1v8.2h5.3v-19.8h-5.3v4.2c-3.7-2.2-8-3.2-13.8-3.2-13.1 0-22.8 8.6-22.8 20.1 0 9.5 5 15.3 19.6 23 12.5 6.5 17 11.4 17 18 0 7.3-6.3 12.2-15.5 12.2-5.1 0-8.2-1.2-15.3-5.9v-9.2h-5.5v20.9h5.5v-4.8c5.8 3.7 10.6 5.2 17.9 5.2 13.1-.2 23-9.5 23-21.5m52.6 15.7l-2.3-4.4c-6.4 3.2-9.3 4.2-13 4.2-10.8 0-19.7-10.7-19.7-23.7 0-5.9 1.9-11 5.3-15.3 3.8-4.6 6.3-5.8 12.6-6.3 4.6 2.9 5.8 3.7 9.9 7.9l6.3-7c-6-4.2-9.4-5.3-15.4-5.3-16.6 0-28.3 11.8-28.3 28.6 0 16.4 10.3 26.8 26.6 26.8 7.2.1 10.3-.9 18-5.5m67.6 4.1v-4.3H796v-35.1c0-8.9-5.3-14.5-13.9-14.5-7.3 0-12.3 3.1-21 13.2V93.5h-2.2L742.2 98v3.1h10.2v73.5h-8.8v4.3h26.2v-4.3h-8.7v-30.2c10.1-11.6 12.9-13.8 18-13.8s8.2 3.8 8.2 10v34h-8.8v4.3h26.3zm44.1-26.2c0 12.9-6.8 22.8-15.5 22.8S818 165.5 818 152.8c0-12.9 6.7-22.8 15.4-22.8s15.5 9.9 15.5 22.8m9.9 0c0-15.3-11.4-27.7-25.4-27.7-14 0-25.4 12.4-25.4 27.7 0 15.3 11.4 27.7 25.4 27.7 14 0 25.4-12.4 25.4-27.7m49.2 0c0 12.9-6.8 22.8-15.5 22.8s-15.4-10.1-15.4-22.8c0-12.9 6.7-22.8 15.4-22.8 8.6 0 15.5 9.9 15.5 22.8m9.8 0c0-15.3-11.4-27.7-25.4-27.7-14 0-25.4 12.4-25.4 27.7 0 15.3 11.4 27.7 25.4 27.7 14.1 0 25.4-12.4 25.4-27.7m29.4 26.2v-4.3h-8.7V93.5h-2.2l-16.7 4.6v3.1h10.2v73.5H921v4.3z" class="st0"/>
  <path d="M176.2 179V8.9H18C28.7 33.9 31.8 70 23.2 115c-3.8 20.2-11.6 39.5-17.1 51.6C2.6 174.3 0 179 0 179h176.2z" class="st2"/>
  <path d="M104.5 12.6s0-.1 0 0z" class="st1"/>
  <path d="M176.2 179V8.9H67c45.7 12.9 78 37.9 78.7 69.1C147.6 155.6 9.1 179 9.1 179h167.1zM35.7 10.5C51.3 19 60.3 30.9 66 45c2.1 5.3 3.6 11 4.4 17 16.5 2 30.5 4.6 41.7 7.5v-.1c-6.2-28.7-32-51.1-76.4-58.9m-16.2 2.1c4.7 12.8 7.9 28.7 8.6 46.1 12.5.6 23.8 1.3 34.5 2.5-1.2-7.1-3.4-13.9-6.8-20.2C48 26.3 35.1 15.9 19.5 12.6M6.1 166.5c20.2-10.3 35.6-26.7 45.4-45.2-17.5 1.7-30.1 2.2-30.1 2.2-4.1 15.7-9.3 30.2-15.3 43m49.2-52.9c6.4-14.7 9.3-30.3 8.3-44.9-11.1-1.2-22.9-2.2-35.3-2.8 0 14.3-1.7 30.5-4.4 46.1-.3 1.6-.3 2-.7 3.6h2.1c10.6-.3 19.2-.8 30-2m-35.5 53.7c37.7-5.4 68.8-28.4 83.9-54.2-13.9 3.2-29.4 5.5-43.1 7.1-8.6 18.7-22.4 35.8-40.8 47.1m112.9-64c-5.2 2.8-11.7 5.1-18.9 7.1-6.2 13.2-16.4 25.5-30 36.1l.1.1c23-12.3 40.4-27.1 48.8-43.3m4.6-13.4c.2-3.5-5.9-7.1-16.4-10.5h-.1c.1 7.6-1.1 15.2-3.5 22.5 12.1-3.9 19.8-8.1 20-12m-17.2-18.2l.1.1c7.8 2.5 13.9 5.2 18 8-.1-.5-.1-.9-.1-1.3-1.6-21-18.1-39-44.1-51.6 14.7 12.8 23.8 27.7 26.1 44.8m-49-2.1c.6 13.8-1.9 28.7-7.3 42.9 16.4-2.1 31.8-4.9 44.3-8.2 3.9-9.1 5.8-18.4 5.2-27.2-11.2-2.8-25.7-5.5-42.2-7.5" class="st0"/>
</svg>
