<svg xmlns="http://www.w3.org/2000/svg" width="16" height="26">
  <g fill="#FFF" fill-rule="evenodd">
    <path d="M15.80349 18.098481l-7.32968 7.306596c-.260672.259897-.687956.259897-.94997 0L.195503 18.098481c-.26067-.259897-.26067-.687254 0-.94715l.155865-.155403c.262014-.261237.689299-.261237.951313 0L7.52384 23.19863c.262014.259897.689298.259897.94997 0l6.222501-6.202702c.262015-.261237.6893-.261237.94997 0l.157208.155402c.262015.259897.262015.687254 0 .947151z"/>
    <path d="M8.8.673212v22.653576C8.8 23.697055 8.490987 24 8.113305 24h-.22661C7.509013 24 7.2 23.697055 7.2 23.326788V.673212C7.2.302945 7.509013 0 7.886695 0h.22661C8.490987 0 8.8.302945 8.8.673212z"/>
  </g>
</svg>
