<svg xmlns="http://www.w3.org/2000/svg" viewBox="0 0 30 30">
  <path d="M20 4c-1.293159 0-2.395141.84267-2.8125 2H4a1.0001 1.0001 0 1 0 0 2h13.1875c.417359 1.15733 1.519341 2 2.8125 2s2.395141-.84267 2.8125-2H26a1.0001 1.0001 0 1 0 0-2h-3.1875C22.395141 4.84267 21.293159 4 20 4zm0 2c.54383 0 .958426.408811.988281.94336a1.0001 1.0001 0 0 0 0 .115234C20.957487 7.592159 20.543157 8 20 8c-.54383 0-.958426-.408811-.988281-.94336a1.0001 1.0001 0 0 0 0-.115234C19.042513 6.407841 19.456843 6 20 6zm-8 6c-1.293159 0-2.395141.84267-2.8125 2H4a1.0001 1.0001 0 1 0 0 2h5.1875c.417359 1.15733 1.519341 2 2.8125 2s2.395141-.84267 2.8125-2H26a1.0001 1.0001 0 1 0 0-2H14.8125c-.417359-1.15733-1.519341-2-2.8125-2zm0 2c.54383 0 .958426.408812.988281.943359a1.0001 1.0001 0 0 0 0 .115235C12.957487 15.592159 12.543157 16 12 16c-.54383 0-.958426-.408812-.988281-.943359a1.0001 1.0001 0 0 0 0-.115235C11.042513 14.407841 11.456843 14 12 14zm4 6c-1.293159 0-2.395141.84267-2.8125 2H4a1.0001 1.0001 0 1 0 0 2h9.1875c.417359 1.15733 1.519341 2 2.8125 2s2.395141-.84267 2.8125-2H26a1.0001 1.0001 0 1 0 0-2h-7.1875c-.417359-1.15733-1.519341-2-2.8125-2zm0 2c.54383 0 .958426.408812.988281.943359a1.0001 1.0001 0 0 0 0 .115235C16.957487 23.592159 16.543157 24 16 24c-.54383 0-.958426-.408812-.988281-.943359a1.0001 1.0001 0 0 0 0-.115235C15.042513 22.407841 15.456843 22 16 22z" style="line-height:normal;text-indent:0;text-align:start;text-decoration-line:none;text-decoration-style:solid;text-decoration-color:#000;text-transform:none;block-progression:tb;isolation:auto;mix-blend-mode:normal"/>
</svg>
