<svg xmlns="http://www.w3.org/2000/svg" width="26" height="26">
  <g fill="#FFF" fill-rule="evenodd">
    <path d="M24 19.5c0 2.481-2.019 4.5-4.5 4.5h-13C4.019 24 2 21.981 2 19.5v-13C2 4.019 4.019 2 6.5 2h13C21.981 2 24 4.019 24 6.5v13zM19.5 0h-13C2.916 0 0 2.916 0 6.5v13C0 23.084 2.916 26 6.5 26h13c3.584 0 6.5-2.916 6.5-6.5v-13C26 2.916 23.084 0 19.5 0z"/>
    <path d="M12.978 18.022c-2.769 0-5.021-2.253-5.021-5.022s2.252-5.022 5.021-5.022S18 10.231 18 13s-2.253 5.022-5.022 5.022m0-12.044c-3.872 0-7.021 3.15-7.021 7.022 0 3.872 3.149 7.022 7.021 7.022S20 16.872 20 13c0-3.872-3.15-7.022-7.022-7.022M20 3c-.551 0-1 .449-1 1 0 .551.449 1 1 1 .551 0 1-.449 1-1 0-.551-.449-1-1-1"/>
  </g>
</svg>
