<svg xmlns="http://www.w3.org/2000/svg" width="30" height="24">
  <path fill="#FFF" fill-rule="evenodd" d="M29.87233 2.914c-.15-.168-.396-.213-.597-.113-.235.118-.755.285-1.324.43.577-.663 1.059-1.465 1.251-2.173.055-.203-.022-.417-.192-.539-.172-.122-.4-.123-.572-.005-.385.262-2.194 1.031-3.316 1.254C23.72933.547 22.34833 0 20.67433 0c-1.239 0-2.39.341-3.731 1.105-2.39 1.362-2.752 4.359-2.546 6.116-6.608-.551-10.311-4.233-11.619-5.828-.103-.125-.261-.196-.422-.182-.162.012-.308.1-.392.239-.872 1.434-1.113 3.043-.695 4.652.262 1.009.752 1.897 1.304 2.591-.401-.209-.795-.475-1.132-.743-.15-.12-.356-.141-.528-.059-.173.084-.283.258-.283.45 0 2.91 1.962 4.896 3.653 5.877-.373-.065-.761-.17-1.118-.276-.189-.056-.393.003-.521.152-.129.148-.158.359-.076.537 1.036 2.234 3.13 3.879 5.447 4.373-2.002 1.25-4.842 1.874-7.459 1.577-.234-.023-.46.119-.533.347-.072.227.027.474.237.589 3.047 1.671 6.212 2.483 9.675 2.483h.022c4.878-.004 9.418-2.09 12.782-5.872 3.05-3.428 4.638-7.774 4.287-11.687.824-.582 2.108-1.709 2.893-2.921.123-.189.104-.438-.047-.606"/>
</svg>
