<svg xmlns="http://www.w3.org/2000/svg" width="30" height="22">
  <path fill="#FFF" fill-rule="evenodd" d="M20.761 11.427l-9 5.5c-.08.049-.17.073-.261.073-.084 0-.168-.021-.244-.064-.158-.088-.256-.255-.256-.436v-11c0-.18.098-.347.256-.436.158-.088.351-.085.505.009l9 5.5c.148.091.239.253.239.427 0 .175-.091.336-.239.427M25.873.682c-.758-.063-1.494-.131-2.224-.198C20.957.235 18.415 0 15 0c-3.299 0-6.066.251-8.741.494-.706.064-1.413.128-2.132.188C1.813.876 0 2.845 0 5.167v11.667c0 2.321 1.813 4.291 4.127 4.484.752.063 1.482.13 2.208.197C9.047 21.764 11.609 22 15 22c3.487 0 5.971-.232 8.603-.477.741-.07 1.491-.139 2.27-.205C28.188 21.125 30 19.155 30 16.834V5.167C30 2.845 28.188.876 25.873.682"/>
</svg>
